<mxfile host="app.diagrams.net" modified="2024-03-06T21:33:00.611Z" agent="Mozilla/5.0 (Windows NT 10.0; Win64; x64; rv:123.0) Gecko/20100101 Firefox/123.0" etag="73PW5e-57bj1U2vhPun6" version="24.0.2" type="github">
  <diagram name="Strona-1" id="DoYkMa_Ixi0BMjxbjFpb">
    <mxGraphModel dx="1195" dy="622" grid="1" gridSize="10" guides="1" tooltips="1" connect="1" arrows="1" fold="1" page="1" pageScale="1" pageWidth="827" pageHeight="1169" math="0" shadow="0">
      <root>
        <mxCell id="0" />
        <mxCell id="1" parent="0" />
        <mxCell id="HIF1sHSORLKwdvwLm-8X-2" value="System zarządzania kampaniami RPG" style="whiteSpace=wrap;html=1;aspect=fixed;" parent="1" vertex="1">
          <mxGeometry x="347" y="517" width="134" height="134" as="geometry" />
        </mxCell>
        <mxCell id="HIF1sHSORLKwdvwLm-8X-3" value="DM" style="shape=umlActor;verticalLabelPosition=bottom;verticalAlign=top;html=1;outlineConnect=0;" parent="1" vertex="1">
          <mxGeometry x="520" y="360" width="30" height="60" as="geometry" />
        </mxCell>
        <mxCell id="HIF1sHSORLKwdvwLm-8X-9" value="podsystem&amp;nbsp;&lt;div&gt;zdarzeń losowych&lt;/div&gt;" style="shape=umlActor;verticalLabelPosition=bottom;verticalAlign=top;html=1;outlineConnect=0;" parent="1" vertex="1">
          <mxGeometry x="600" y="420" width="30" height="60" as="geometry" />
        </mxCell>
        <mxCell id="HIF1sHSORLKwdvwLm-8X-10" value="" style="endArrow=none;html=1;rounded=0;exitX=0.538;exitY=0.004;exitDx=0;exitDy=0;exitPerimeter=0;entryX=0.5;entryY=0.5;entryDx=0;entryDy=0;entryPerimeter=0;" parent="1" source="HIF1sHSORLKwdvwLm-8X-2" target="HIF1sHSORLKwdvwLm-8X-3" edge="1">
          <mxGeometry width="50" height="50" relative="1" as="geometry">
            <mxPoint x="380" y="600" as="sourcePoint" />
            <mxPoint x="400" y="390" as="targetPoint" />
          </mxGeometry>
        </mxCell>
        <mxCell id="HIF1sHSORLKwdvwLm-8X-12" value="" style="endArrow=none;html=1;rounded=0;exitX=1;exitY=0;exitDx=0;exitDy=0;entryX=0.5;entryY=0.5;entryDx=0;entryDy=0;entryPerimeter=0;" parent="1" source="HIF1sHSORLKwdvwLm-8X-2" target="HIF1sHSORLKwdvwLm-8X-9" edge="1">
          <mxGeometry width="50" height="50" relative="1" as="geometry">
            <mxPoint x="380" y="600" as="sourcePoint" />
            <mxPoint x="430" y="550" as="targetPoint" />
          </mxGeometry>
        </mxCell>
        <mxCell id="HIF1sHSORLKwdvwLm-8X-16" value="baza zasad gry" style="shape=umlActor;verticalLabelPosition=bottom;verticalAlign=top;html=1;outlineConnect=0;" parent="1" vertex="1">
          <mxGeometry x="610" y="555" width="30" height="60" as="geometry" />
        </mxCell>
        <mxCell id="8i99S-bPYXV_rISgizf9-1" value="" style="endArrow=none;html=1;rounded=0;entryX=0.5;entryY=0.5;entryDx=0;entryDy=0;entryPerimeter=0;exitX=1;exitY=0.5;exitDx=0;exitDy=0;" edge="1" parent="1" source="HIF1sHSORLKwdvwLm-8X-2" target="HIF1sHSORLKwdvwLm-8X-16">
          <mxGeometry width="50" height="50" relative="1" as="geometry">
            <mxPoint x="520" y="615" as="sourcePoint" />
            <mxPoint x="570" y="565" as="targetPoint" />
          </mxGeometry>
        </mxCell>
        <mxCell id="8i99S-bPYXV_rISgizf9-2" value="&lt;div&gt;Czas trwania&lt;/div&gt;&lt;div&gt;kampanii&lt;/div&gt;&lt;div&gt;&lt;br&gt;&lt;/div&gt;" style="shape=umlActor;verticalLabelPosition=bottom;verticalAlign=top;html=1;outlineConnect=0;" vertex="1" parent="1">
          <mxGeometry x="230" y="420" width="30" height="60" as="geometry" />
        </mxCell>
        <mxCell id="8i99S-bPYXV_rISgizf9-8" style="edgeStyle=orthogonalEdgeStyle;rounded=0;orthogonalLoop=1;jettySize=auto;html=1;exitX=1;exitY=0.3333333333333333;exitDx=0;exitDy=0;exitPerimeter=0;" edge="1" parent="1" source="8i99S-bPYXV_rISgizf9-3">
          <mxGeometry relative="1" as="geometry">
            <mxPoint x="260" y="549.6666666666667" as="targetPoint" />
          </mxGeometry>
        </mxCell>
        <mxCell id="8i99S-bPYXV_rISgizf9-3" value="&lt;div&gt;Zmiany wśród&lt;/div&gt;&lt;div&gt;postaci&lt;br&gt;&lt;/div&gt;" style="shape=umlActor;verticalLabelPosition=bottom;verticalAlign=top;html=1;outlineConnect=0;" vertex="1" parent="1">
          <mxGeometry x="230" y="530" width="30" height="60" as="geometry" />
        </mxCell>
        <mxCell id="8i99S-bPYXV_rISgizf9-4" value="Postęp fabularny" style="shape=umlActor;verticalLabelPosition=bottom;verticalAlign=top;html=1;outlineConnect=0;" vertex="1" parent="1">
          <mxGeometry x="230" y="670" width="30" height="60" as="geometry" />
        </mxCell>
        <mxCell id="8i99S-bPYXV_rISgizf9-5" value="" style="endArrow=none;html=1;rounded=0;entryX=0;entryY=0;entryDx=0;entryDy=0;exitX=0.5;exitY=0.5;exitDx=0;exitDy=0;exitPerimeter=0;" edge="1" parent="1" source="8i99S-bPYXV_rISgizf9-2" target="HIF1sHSORLKwdvwLm-8X-2">
          <mxGeometry width="50" height="50" relative="1" as="geometry">
            <mxPoint x="250" y="580" as="sourcePoint" />
            <mxPoint x="300" y="530" as="targetPoint" />
          </mxGeometry>
        </mxCell>
        <mxCell id="8i99S-bPYXV_rISgizf9-6" value="" style="endArrow=none;html=1;rounded=0;entryX=0;entryY=0.5;entryDx=0;entryDy=0;exitX=0.5;exitY=0.5;exitDx=0;exitDy=0;exitPerimeter=0;" edge="1" parent="1" source="8i99S-bPYXV_rISgizf9-3" target="HIF1sHSORLKwdvwLm-8X-2">
          <mxGeometry width="50" height="50" relative="1" as="geometry">
            <mxPoint x="250" y="580" as="sourcePoint" />
            <mxPoint x="300" y="530" as="targetPoint" />
          </mxGeometry>
        </mxCell>
        <mxCell id="8i99S-bPYXV_rISgizf9-7" value="" style="endArrow=none;html=1;rounded=0;entryX=0;entryY=1;entryDx=0;entryDy=0;exitX=0.5;exitY=0.5;exitDx=0;exitDy=0;exitPerimeter=0;" edge="1" parent="1" source="8i99S-bPYXV_rISgizf9-4" target="HIF1sHSORLKwdvwLm-8X-2">
          <mxGeometry width="50" height="50" relative="1" as="geometry">
            <mxPoint x="250" y="580" as="sourcePoint" />
            <mxPoint x="300" y="530" as="targetPoint" />
          </mxGeometry>
        </mxCell>
      </root>
    </mxGraphModel>
  </diagram>
</mxfile>
